<svg xmlns="http://www.w3.org/2000/svg" width="744" height="735" baseProfile="tiny" version="1.2"><path fill="#222f54" d="M121.133 638.753c-46.36-41.93-82.96-95.99-102.56-155.45q-35.76-108.44-2.67-218.94c43.61-145.63 170.02-247.97 320.99-262.61 141.4-13.72 279.36 53.91 353.12 174.87 54.06 88.65 68.99 197.8 38.2 297.42-42.29 136.83-158.77 236.32-300.34 257.39-110.6 16.45-223.67-17.55-306.74-92.68zm107.17-494.89q34.7 29.56 65.7 62.97.34.37.84.41 2.22.16 4.25-.92 11.75-2.58 23.78-3.75a.35.35 0 0 0 .28-.5c-5.17-11.21 3.17-22.49 14.73-23.61 22.05-2.13 46.47 8.98 65.75 18.56q2.48 1.24 5.27 1.52 18.7 1.91 37.26 6.03.5.11.85-.26c29.39-30.39 62-59.74 97.38-83.36 20.78-13.88 43.26-8.44 54.95 13.62 6.67 13.72 10.34 29.63 13.11 44.57 7.83 42.09 7.65 85.21 5.62 127.81-.05 1.07.44 3.22.88 4.16q22.97 49.66 23.34 103.87.01 1.42 1.44 1.39l15.32-.34c7.15-.09 14.94-.71 18.18 5.24 3.15 5.79.22 11.73-5.69 14.09q-1.54.62-6.19.73l-22.21-.01a.49.48 1.2 0 0-.49.46l-1.57 25.31q-.03.47.44.45 12.99-.41 25.76.11 6.17.26 9.42 5.06 2.88 5.61-1.08 11.35-4.07 3.51-8.82 3.51-14.33-.02-28.19-.01-.76.01-.88.76c-7.44 45.1-28.24 81.42-66.47 106.64a.48.48 0 0 0 .03.82q15.55 8.69 28.76 20.57l9.78 9.77q.39.39.8.02c45.31-41.41 78.96-95.82 96.69-153.34 39.33-127.57-1.3-265.47-98.75-355.41-79.23-73.12-193.31-104.27-299.45-84.71-143.61 26.46-254.19 136.73-281.37 280.02-22.01 116.03 19.95 233.13 105.64 312.88a.31.31 0 0 0 .44-.02q16.76-18.63 38.74-30.68a.52.51-42.2 0 0 .05-.88c-36.02-24.53-59.31-62.91-66.52-105.67q-.08-.5-.59-.51-13.2-.41-26.42-.26c-4.82.05-8.29-.61-11.1-4.26-3.98-5.18-1.15-12.53 4.57-14.77q2.59-1.02 9.14-.99 10.55.06 21.08 0a.34.34 0 0 0 .34-.35l-.59-25.23q-.02-.69-.72-.69-12.93.08-24.47.29c-10.62.2-16.47-12.65-6.75-18.49q2.39-1.43 7.81-1.54 12.52-.26 25.09-.23.52 0 .58-.52 5.56-48.28 29.33-90.49c.99-1.75.71-3.63.43-5.49q-1.71-11.28-2.5-22.67c-3.43-49.49-3.51-101.89 9.93-150.08 3.38-12.13 8.9-23.18 20.2-29.58 14.68-8.31 30.02-1.24 42.3 7.88q15.14 11.23 24.54 18.75zm258.41 75.18q45.55 17.87 87.15 45.47 2.4 1.59 3.44 2.6c5.93 7.35.44 18.08-9.07 16.29q-2.99-.56-7.77-3.81-16.02-10.88-33.37-19.52c-36.97-19.99-77.66-34.1-119.49-39.2q-2.25-.27-4.21-1.51c-16.36-10.38-39.49-21.49-59.1-22.1a1.14 1.14 0 0 0-1.07 1.61q.75 1.63 2.3 3.48 6.21 7.42 12.24 15.01c7.07 8.91-2.89 20.03-12.68 14.08-2.3-1.4-4.15-4.27-6.21-6.37q-.38-.39-.92-.37-24.13.96-47.46 7.14a1.44 1.43-28 0 1-1.43-.43c-30.11-33.54-63.57-65.33-100.09-92.04q-6.29-4.6-9.54-5.47c-10.31-2.77-15.09 7.52-17.43 15.66-8.97 31.14-11.9 65.02-11.71 97.33.1 16.78.54 34.02 1.84 51q.07.8.54.16 8.75-11.82 18.67-22.48 31.3-31.75 72.05-49.88 4.01-1.78 8.41-1.66c6.87 1.86 10.86 9.3 6.5 15.33-2.83 3.92-11.09 6.91-15.58 9.15-64.49 32.3-108.49 95.89-117.63 167.27q-.06.53.47.53 29.73.03 59.44.02 5.69 0 8.27 1.18c10.41 4.78 5.56 18.78-5.03 18.79q-31.95.03-63.95.02-.54 0-.61.53c-1.01 7.6-.19 16.45.38 24.96q.03.51.54.51 31.82-.02 63.64.03c14.3.02 15.08 19.94-2.19 19.95q-29.35.02-58.25.18-.73 0-.57.71 15 68.78 76.45 99.4c5.21 2.6 14.06 5.65 20.73 9.6q2.44 4.26 2.26 8.81c-5.59 14.54-22.17 4.51-30.88.42q-.45-.21-.9-.01-25.53 11.3-44.91 31.38-.85.88.1 1.64c95.04 76.3 221.24 99.8 336.47 60.1q59.83-19.91 108.46-59.94a.29.29 0 0 0 .03-.43q-18.98-19.77-43.99-30.84c-1.66-.73-1.96-1.47-3.86-.48-8.4 4.42-19.28 10.48-24.48 1.22-3.76-6.69.21-12.16 6.5-15.09q13.2-6.14 17.02-8.21 58.54-31.81 70.39-97.83.1-.55-.46-.55l-20.29-.01q-23.61-.09-47.08-.05c-11.06.02-14.83-15.22-4-19.12q2.46-.88 9.16-.88 23.15.03 46.35-.04l19.21.03a.67.67 0 0 0 .67-.62l1.87-25.1a.55.54 1.9 0 0-.56-.59l-19.44.36q-26.25-.07-52.5-.04c-14.58.02-15.28-20.02 0-20q25.5.04 51-.04l20.56.03a.78.78 0 0 0 .78-.8q-1.68-53.23-23.79-100.99-.9-1.94-.79-4.05 1.07-21.85 1.2-43.65c-.5-40.14-2.57-78.78-15.23-117.24-3.06-9.32-8.15-18.25-18.47-16.04-4.8 1.03-12.63 6.53-16.47 9.32q-43.16 31.24-80.3 69.46a.24.24 0 0 0 .09.39l18.58 6.33z"/><path fill="#62cfe2" d="M600.053 611.113c32.38-26.57 51.73-65.41 59.17-106.09a.8.78 4.4 0 1 .77-.65q12.43-.22 24.81-.27 2.55-.01 8.01-2 .45-.17.63-.61c1.14-2.78 2.99-6.01 2.2-9.04q-.8-3.04-2.41-4.81-6.62-7.28-17.61-8.82 3.96-5.74 1.08-11.35 3.43-.73 6.55-2.14c9.72-4.39 4.9-13.68-2.71-15.76q-3.23-.88-11.5-1.47c-1.8-.13-2.69-2.03-2.6-3.83q.23-4.19-1.09-8.18 4.65-.11 6.19-.73c5.91-2.36 8.84-8.3 5.69-14.09-3.24-5.95-11.03-5.33-18.18-5.24.1-2.8.44-5.51.04-8.28-3.36-23.4-10.68-47.42-20.57-68.67-2.72-5.85-5.33-10.07-4.71-16.25q4.67-46.67.68-93.3c-1.49-17.43-4.59-34.07-9.28-50.68-4.4-15.63-11.42-32.59-23.16-44.43q-.33-.33-.76-.12-.96.48-1.95.27c-11.69-22.06-34.17-27.5-54.95-13.62-35.38 23.62-67.99 52.97-97.38 83.36q-.35.37-.85.26-18.56-4.12-37.26-6.03-2.79-.28-5.27-1.52c-19.28-9.58-43.7-20.69-65.75-18.56-11.56 1.12-19.9 12.4-14.73 23.61a.35.35 0 0 1-.28.5q-12.03 1.17-23.78 3.75-3.51-5.06-10.54-11.75-31.05-29.54-56.8-50.75-.41-.33-.94-.27l-2.51.31q-9.4-7.52-24.54-18.75c-12.28-9.12-27.62-16.19-42.3-7.88-11.3 6.4-16.82 17.45-20.2 29.58-13.44 48.19-13.36 100.59-9.93 150.08q.79 11.39 2.5 22.67c.28 1.86.56 3.74-.43 5.49q-23.77 42.21-29.33 90.49-.06.52-.58.52-12.57-.03-25.09.23-5.42.11-7.81 1.54c-9.72 5.84-3.87 18.69 6.75 18.49q11.54-.21 24.47-.29.7 0 .72.69l.59 25.23a.34.34 0 0 1-.34.35q-10.53.06-21.08 0-6.55-.03-9.14.99c-5.72 2.24-8.55 9.59-4.57 14.77 2.81 3.65 6.28 4.31 11.1 4.26q13.22-.15 26.42.26.51.01.59.51c7.21 42.76 30.5 81.14 66.52 105.67a.52.51-42.2 0 1-.05.88q-21.98 12.05-38.74 30.68a.31.31 0 0 1-.44.02c-85.69-79.75-127.65-196.85-105.64-312.88 27.18-143.29 137.76-253.56 281.37-280.02 106.14-19.56 220.22 11.59 299.45 84.71 97.45 89.94 138.08 227.84 98.75 355.41-17.73 57.52-51.38 111.93-96.69 153.34q-.41.37-.8-.02l-9.78-9.77zm-103.48-483.67a18.52 18.52 0 0 0-18.52-18.52 18.52 18.52 0 0 0-18.52 18.52 18.52 18.52 0 0 0 18.52 18.52 18.52 18.52 0 0 0 18.52-18.52z"/><circle cx="478.053" cy="127.443" r="18.52" fill="#fffefe"/><path fill="#fffefe" d="M598.513 266.823q-.24.18-.3.48-.08.35-.39.16l-.42-.24q-.18-.11-.19-.33l-.23-7.61q-.02-.97-.57-.17c-3.97 5.82-9.08 10.2-16.36 6.92q-.85-2.27-.84-4.71.25-46.31-9.64-91.5-.85-3.89-2.48-8.61c-4.22-12.17-13.64-2.73-18.98 1.67q-32.16 26.47-61.4 56.16l-18.58-6.33a.24.24 0 0 1-.09-.39q37.14-38.22 80.3-69.46c3.84-2.79 11.67-8.29 16.47-9.32 10.32-2.21 15.41 6.72 18.47 16.04 12.66 38.46 14.73 77.1 15.23 117.24zm-71.42-6.75q-.11.63-.47.75-.31.1-.08.33c40.58 40.12 67.98 98.77 74.01 155.13q-25.5.08-51 .04c-15.28-.02-14.58 20.02 0 20q26.25-.03 52.5.04l-1.75 25.92q-23.2.07-46.35.04-6.7 0-9.16.88c-10.83 3.9-7.06 19.14 4 19.12q23.47-.04 47.08.05-1.31 3.47-4.62 13.4c-12.49 37.39-44.59 65.67-80.21 81.29-33.86 14.85-71.59 21.92-108.57 24.48q-62.7 4.35-125.24-1.85-25.38-2.52-50.29-7.96c-1.18-.26-1.6-.1-2.53.46-6.67-3.95-15.52-7-20.73-9.6q-61.45-30.62-76.45-99.4-.16-.71.57-.71 28.9-.16 58.25-.18c17.27-.01 16.49-19.93 2.19-19.95q-31.82-.05-63.64-.03-.51 0-.54-.51c-.57-8.51-1.39-17.36-.38-24.96q.07-.53.61-.53 32 .01 63.95-.02c10.59-.01 15.44-14.01 5.03-18.79q-2.58-1.18-8.27-1.18-29.71.01-59.44-.02-.53 0-.47-.53c9.14-71.38 53.14-134.97 117.63-167.27 4.49-2.24 12.75-5.23 15.58-9.15 4.36-6.03.37-13.47-6.5-15.33q-.44-2.21-1.31-3.15-27.17-29.67-58.04-55.48c-6.93-5.79-13.96-8.16-15.93 3.19-6.23 35.84-7.21 68.69-6.04 105.51q.02.5.39.83.32.28.47.64-9.92 10.66-18.67 22.48-.47.64-.54-.16c-1.3-16.98-1.74-34.22-1.84-51-.19-32.31 2.74-66.19 11.71-97.33 2.34-8.14 7.12-18.43 17.43-15.66q3.25.87 9.54 5.47c36.52 26.71 69.98 58.5 100.09 92.04a1.44 1.43-28 0 0 1.43.43q23.33-6.18 47.46-7.14.54-.02.92.37c2.06 2.1 3.91 4.97 6.21 6.37 9.79 5.95 19.75-5.17 12.68-14.08q-6.03-7.59-12.24-15.01-1.55-1.85-2.3-3.48a1.14 1.14 0 0 1 1.07-1.61c19.61.61 42.74 11.72 59.1 22.1q1.96 1.24 4.21 1.51c41.83 5.1 82.52 19.21 119.49 39.2zm-191.17 72.7c7.29 22.01 41.24 22.5 49.55 1.27 2.57-6.57 1.94-15.93 1.82-23.53-.1-5.66-1.63-10.39-7.36-11.7-14.96-3.44-12.1 17.52-12.25 25.19-.14 7-9.19 9.82-12.53 3.81-3.82-6.88 2.61-19.37-4.78-24.7-4.53-3.27-11.52-2.29-14.29 2.84-2.45 4.52-1.74 22.03-.16 26.82zm193.17 50.58a45.95 45.95 0 0 0-45.95-45.95 45.95 45.95 0 0 0-45.95 45.95 45.95 45.95 0 0 0 45.95 45.95 45.95 45.95 0 0 0 45.95-45.95zm-228.986 2.707a44.59 44.09-2.6 0 0-46.544-42.022 44.59 44.09-2.6 0 0-42.544 46.067 44.59 44.09-2.6 0 0 46.544 42.022 44.59 44.09-2.6 0 0 42.544-46.067zm40.446 100.803q.26 12.14 3.04 23.96c7.94 27.83 45.81 27.2 52.49-.78q2.11-11.93 2.42-23.86 26.99-.58 39.6-24.86c2.37-4.58 5.3-8.55 4.13-13.54-1.66-7.03-11.03-9.59-16.34-4.83-4.17 3.75-5.75 11.5-9.3 15.9-10.96 13.6-32.57 9.12-35.66-8.73q-.09-.54.42-.74c13.07-4.93 25.7-20.33 12.03-32.97-10.1-9.34-26.83-10.51-39.08-6.21-24.87 8.73-17.88 31.44 2.21 39.55q.53.22.43.78c-2.92 16.51-21.9 23.04-33.86 10.91-3.5-3.55-5.86-8.98-8.33-13.73-3.07-5.93-9.4-8.46-15.24-4.39-8.89 6.2-.38 18.43 4.21 25.03q13.36 19.23 36.83 18.51z"/><path fill="#58bbd1" d="m659.053 416.033-15.32.34q-1.43.03-1.44-1.39-.37-54.21-23.34-103.87c-.44-.94-.93-3.09-.88-4.16 2.03-42.6 2.21-85.72-5.62-127.81-2.77-14.94-6.44-30.85-13.11-44.57q.99.21 1.95-.27.43-.21.76.12c11.74 11.84 18.76 28.8 23.16 44.43 4.69 16.61 7.79 33.25 9.28 50.68q3.99 46.63-.68 93.3c-.62 6.18 1.99 10.4 4.71 16.25 9.89 21.25 17.21 45.27 20.57 68.67.4 2.77.06 5.48-.04 8.28zm-359.96-209.71q-2.03 1.08-4.25.92-.5-.04-.84-.41-31-33.41-65.7-62.97l2.51-.31q.53-.06.94.27 25.75 21.21 56.8 50.75 7.03 6.69 10.54 11.75z"/><path fill="#ffc6c4" d="m580.053 266.033-2.75 1.08q-1.04-1.01-3.44-2.6-41.6-27.6-87.15-45.47 29.24-29.69 61.4-56.16c5.34-4.4 14.76-13.84 18.98-1.67q1.63 4.72 2.48 8.61 9.89 45.19 9.64 91.5-.01 2.44.84 4.71zm-328.25-42q-4.4-.12-8.41 1.66-40.75 18.13-72.05 49.88-.15-.36-.47-.64-.37-.33-.39-.83c-1.17-36.82-.19-69.67 6.04-105.51 1.97-11.35 9-8.98 15.93-3.19q30.87 25.81 58.04 55.48.87.94 1.31 3.15z"/><path fill="#d4ddf2" d="M598.513 266.823q-.13 21.8-1.2 43.65-.11 2.11.79 4.05 22.11 47.76 23.79 100.99a.78.78 0 0 1-.78.8l-20.56-.03c-6.03-56.36-33.43-115.01-74.01-155.13q-.23-.23.08-.33.36-.12.47-.75 17.35 8.64 33.37 19.52 4.78 3.25 7.77 3.81c9.51 1.79 15-8.94 9.07-16.29l2.75-1.08c7.28 3.28 12.39-1.1 16.36-6.92q.55-.8.57.17l.23 7.61q.01.22.19.33l.42.24q.31.19.39-.16.06-.3.3-.48z"/><path fill="#222f54" d="M385.473 334.043c-8.31 21.23-42.26 20.74-49.55-1.27-1.58-4.79-2.29-22.3.16-26.82 2.77-5.13 9.76-6.11 14.29-2.84 7.39 5.33.96 17.82 4.78 24.7 3.34 6.01 12.39 3.19 12.53-3.81.15-7.67-2.71-28.63 12.25-25.19 5.73 1.31 7.26 6.04 7.36 11.7.12 7.6.75 16.96-1.82 23.53zm143.62 49.31a45.95 45.95 0 0 1-45.95 45.95 45.95 45.95 0 0 1-45.95-45.95 45.95 45.95 0 0 1 45.95-45.95 45.95 45.95 0 0 1 45.95 45.95zm-18.9-12.29a17.57 17.57 0 0 0-17.57-17.57 17.57 17.57 0 0 0-17.57 17.57 17.57 17.57 0 0 0 17.57 17.57 17.57 17.57 0 0 0 17.57-17.57zM300.107 386.06a44.59 44.09-2.6 0 1-42.544 46.067 44.59 44.09-2.6 0 1-46.544-42.022 44.59 44.09-2.6 0 1 42.544-46.067 44.59 44.09-2.6 0 1 46.544 42.022zm-17.404-11.357a17.68 17.68 0 0 0-17.68-17.68 17.68 17.68 0 0 0-17.68 17.68 17.68 17.68 0 0 0 17.68 17.68 17.68 17.68 0 0 0 17.68-17.68z"/><circle cx="492.623" cy="371.063" r="17.57" fill="#fffefe"/><circle cx="265.023" cy="374.703" r="17.68" fill="#fffefe"/><path fill="#222f54" d="M398.503 486.183q-18.78-1.39-29.32-16.74-.35-.52-.68.01-9.56 15.47-27.95 17.41-23.47.72-36.83-18.51c-4.59-6.6-13.1-18.83-4.21-25.03 5.84-4.07 12.17-1.54 15.24 4.39 2.47 4.75 4.83 10.18 8.33 13.73 11.96 12.13 30.94 5.6 33.86-10.91q.1-.56-.43-.78c-20.09-8.11-27.08-30.82-2.21-39.55 12.25-4.3 28.98-3.13 39.08 6.21 13.67 12.64 1.04 28.04-12.03 32.97q-.51.2-.42.74c3.09 17.85 24.7 22.33 35.66 8.73 3.55-4.4 5.13-12.15 9.3-15.9 5.31-4.76 14.68-2.2 16.34 4.83 1.17 4.99-1.76 8.96-4.13 13.54q-12.61 24.28-39.6 24.86zm-43.01-53.05q14.84 10.68 28.18-.94c3.67-3.2.88-6.41-2.52-7.83q-12.23-5.1-25.17.15c-4.94 2.01-4.31 5.87-.49 8.62z"/><path fill="#ffc6c4" d="M355.493 433.133c-3.82-2.75-4.45-6.61.49-8.62q12.94-5.25 25.17-.15c3.4 1.42 6.19 4.63 2.52 7.83q-13.34 11.62-28.18.94z"/><path fill="#d4ddf2" d="m600.303 462.283 1.75-25.92 19.44-.36a.55.54 1.9 0 1 .56.59l-1.87 25.1a.67.67 0 0 1-.67.62l-19.21-.03z"/><path fill="#58bbd1" d="M665.353 436.093q1.32 3.99 1.09 8.18c-.09 1.8.8 3.7 2.6 3.83q8.27.59 11.5 1.47c7.61 2.08 12.43 11.37 2.71 15.76q-3.12 1.41-6.55 2.14-3.25-4.8-9.42-5.06-12.77-.52-25.76-.11-.47.02-.44-.45l1.57-25.31a.49.48 1.2 0 1 .49-.46l22.21.01z"/><path fill="#e6a7aa" d="M398.503 486.183q-.31 11.93-2.42 23.86-5.5-6.97-14.52-9.22-22.21-5.55-37.97 10-2.78-11.82-3.04-23.96 18.39-1.94 27.95-17.41.33-.53.68-.01 10.54 15.35 29.32 16.74z"/><path fill="#58bbd1" d="M675.623 478.823q10.99 1.54 17.61 8.82 1.61 1.77 2.41 4.81c.79 3.03-1.06 6.26-2.2 9.04q-.18.44-.63.61-5.46 1.99-8.01 2-12.38.05-24.81.27a.8.78 4.4 0 0-.77.65c-7.44 40.68-26.79 79.52-59.17 106.09q-13.21-11.88-28.76-20.57a.48.48 0 0 1-.03-.82c38.23-25.22 59.03-61.54 66.47-106.64q.12-.75.88-.76 13.86-.01 28.19.01 4.75 0 8.82-3.51z"/><path fill="#d4ddf2" d="m595.873 482.373 20.29.01q.56 0 .46.55-11.85 66.02-70.39 97.83-3.82 2.07-17.02 8.21c-6.29 2.93-10.26 8.4-6.5 15.09 5.2 9.26 16.08 3.2 24.48-1.22 1.9-.99 2.2-.25 3.86.48q25.01 11.07 43.99 30.84a.29.29 0 0 1-.03.43q-48.63 40.03-108.46 59.94.05-.58-.32-.57c-93.02.71-181.32-29.62-253.73-87.58q-1.86-1.48-5.83-5.38.18-4.55-2.26-8.81c.93-.56 1.35-.72 2.53-.46q24.91 5.44 50.29 7.96 62.54 6.2 125.24 1.85c36.98-2.56 74.71-9.63 108.57-24.48 35.62-15.62 67.72-43.9 80.21-81.29q3.31-9.93 4.62-13.4z"/><path fill="#ffc6c4" d="M396.083 510.043c-6.68 27.98-44.55 28.61-52.49.78q15.76-15.55 37.97-10 9.02 2.25 14.52 9.22z"/><path fill="#fffefe" d="M226.673 601.003q3.97 3.9 5.83 5.38c72.41 57.96 160.71 88.29 253.73 87.58q.37-.01.32.57c-115.23 39.7-241.43 16.2-336.47-60.1q-.95-.76-.1-1.64 19.38-20.08 44.91-31.38.45-.2.9.01c8.71 4.09 25.29 14.12 30.88-.42z"/></svg>